<?xml version="1.0" encoding="UTF-8" standalone="no"?><!DOCTYPE svg PUBLIC "-//W3C//DTD SVG 1.1//EN" "http://www.w3.org/Graphics/SVG/1.1/DTD/svg11.dtd"><svg width="100%" height="100%" viewBox="0 0 1605 415" version="1.1" xmlns="http://www.w3.org/2000/svg" xmlns:xlink="http://www.w3.org/1999/xlink" xml:space="preserve" xmlns:serif="http://www.serif.com/" style="fill-rule:evenodd;clip-rule:evenodd;stroke-linejoin:bevel;stroke-miterlimit:1.5;"><g transform="matrix(1,0,0,1,-937.841071,-724.345194)"><g id="luthnew-dark-1" transform="matrix(1,0,0,1.002727,53,-299.833878)"><g transform="matrix(-0.462141,-0.462141,0.466058,-0.466058,1019.836109,2335.543189)"><path d="M931.955,1044.657l0.045,387.343l330,0" style="fill:none;stroke:#fcfcfc;stroke-width:50.65px;"/></g><g transform="matrix(0.462203,0.462203,-0.468657,0.468657,1141.851731,116.649514)"><path d="M932,1046.804l0,385.196l330,0" style="fill:none;stroke:#fcfcfc;stroke-width:50.5px;"/></g><g transform="matrix(1.352096,0,0,1.39709,587.207186,846.1791)"><path d="M606.432,330.452l0,-109.81l18.953,0l0,94.436l63.946,0l0,15.374l-82.898,0Z" style="fill:#fcfcfc;fill-rule:nonzero;"/><path d="M767.945,331.259c-9.535,0 -17.591,-1.504 -24.169,-4.513c-6.578,-3.009 -11.872,-7.1 -15.883,-12.273c-4.011,-5.173 -6.938,-11.054 -8.781,-17.642c-1.843,-6.588 -2.764,-13.41 -2.764,-20.465l0,-55.724l18.953,0l0,55.724c0,4.983 0.546,9.832 1.639,14.547c1.093,4.715 2.877,8.927 5.351,12.638c2.475,3.71 5.8,6.657 9.976,8.839c4.176,2.182 9.358,3.273 15.547,3.273c6.303,0 11.548,-1.112 15.735,-3.335c4.187,-2.223 7.512,-5.215 9.975,-8.976c2.463,-3.761 4.24,-7.979 5.333,-12.653c1.093,-4.675 1.639,-9.452 1.639,-14.332l0,-55.724l18.955,0l0,55.724c0,7.467 -0.962,14.521 -2.885,21.161c-1.924,6.64 -4.941,12.475 -9.052,17.505c-4.111,5.03 -9.428,8.992 -15.95,11.886c-6.523,2.894 -14.395,4.341 -23.618,4.341Z" style="fill:#fcfcfc;fill-rule:nonzero;"/><path d="M949.091,236.016l-39.735,0l0,94.436l-18.955,0l0,-94.436l-39.772,0l0,-15.374l98.462,0l0,15.374Z" style="fill:#fcfcfc;fill-rule:nonzero;"/><path d="M1080.095,220.641l0,109.81l-18.953,0l0,-48.455l-60.236,0l0,48.455l-18.953,0l0,-109.81l18.953,0l0,45.981l60.236,0l0,-45.981l18.953,0Z" style="fill:#fcfcfc;fill-rule:nonzero;"/><rect x="1123.785" y="220.641" width="18.953" height="109.81" style="fill:#fcfcfc;fill-rule:nonzero;"/><path d="M1268.396,315.077l0,15.374l-81.97,0l0,-109.81l80.456,0l0,15.374l-61.503,0l0,31.237l53.309,0l0,14.369l-53.309,0l0,33.455l63.018,0Z" style="fill:#fcfcfc;fill-rule:nonzero;"/><path d="M1323.709,252.821l0,77.631l-18.953,0l0,-109.81l15.545,0l67.616,79.366l0,-79.245l18.953,0l0,109.689l-16.445,0l-66.717,-77.631Z" style="fill:#fcfcfc;fill-rule:nonzero;"/></g><g transform="matrix(1.800825,0,0,1.831811,-1034.306554,-3911.878726)"><path d="M1164.579,2831.786l-39.559,-17.888l0,-12.298l39.559,-17.974l0,11.696l-23.736,10.406c-1.147,0.516 -2.351,0.946 -3.612,1.29c-1.261,0.344 -2.265,0.573 -3.01,0.688c0.745,0.115 1.749,0.33 3.01,0.645c1.261,0.315 2.465,0.731 3.612,1.247l23.736,10.406l0,11.782Z" style="fill:#3b9494;fill-rule:nonzero;"/><g transform="matrix(0.153473,0,0,0.438596,975.200779,1826.445738)"><rect x="1010" y="2228" width="52" height="18" style="fill:#3b9494;"/></g><path d="M1185.219,2831.786l0,-11.696l23.736,-10.406c1.147,-0.516 2.351,-0.946 3.612,-1.29c1.261,-0.344 2.265,-0.573 3.01,-0.688c-0.745,-0.115 -1.749,-0.33 -3.01,-0.645c-1.261,-0.315 -2.465,-0.731 -3.612,-1.247l-23.736,-10.406l0,-11.782l39.559,17.888l0,12.298l-39.559,17.974Z" style="fill:#3b9494;fill-rule:nonzero;"/><g transform="matrix(-0.153473,0,-0,-0.438596,1371.842392,3788.799428)"><rect x="1010" y="2228" width="52" height="18" style="fill:#3b9494;"/></g></g></g></g></svg>