<?xml version="1.0" encoding="UTF-8" standalone="no"?>
<!DOCTYPE svg PUBLIC "-//W3C//DTD SVG 1.1//EN" "http://www.w3.org/Graphics/SVG/1.1/DTD/svg11.dtd">
<svg width="100%" height="100%" viewBox="0 0 1605 415" version="1.1" xmlns="http://www.w3.org/2000/svg" xmlns:xlink="http://www.w3.org/1999/xlink" xml:space="preserve" xmlns:serif="http://www.serif.com/" style="fill-rule:evenodd;clip-rule:evenodd;stroke-linejoin:bevel;stroke-miterlimit:1.5;">
    <g transform="matrix(1,0,0,1,-884.841071,-2032.345194)">
        <g id="luthnew-dark-1" transform="matrix(1,0,0,1.002727,0,1008.166122)">
            <g transform="matrix(-0.462141,-0.462141,0.466058,-0.466058,1019.836109,2335.543189)">
                <path d="M931.955,1044.657L932,1432L1262,1432" style="fill:none;stroke:rgb(252,252,252);stroke-width:50.65px;"/>
            </g>
            <g transform="matrix(0.462203,0.462203,-0.468657,0.468657,1141.851731,116.649514)">
                <path d="M932,1046.804L932,1432L1262,1432" style="fill:none;stroke:rgb(252,252,252);stroke-width:50.5px;"/>
            </g>
            <g transform="matrix(1,0,0,0.99728,796,911.348199)">
                <g transform="matrix(1.05,0,0,1,-29.65,0)">
                    <g transform="matrix(216.666667,0,0,216.666667,593,397.583333)">
                        <path d="M0.08,-0L0.08,-0.71L0.192,-0.71L0.192,-0.099L0.573,-0.099L0.573,-0L0.08,-0Z" style="fill:rgb(252,252,252);fill-rule:nonzero;"/>
                    </g>
                    <g transform="matrix(216.666667,0,0,216.666667,736.707045,397.583333)">
                        <path d="M0.376,0.005C0.32,0.005 0.272,-0.005 0.233,-0.024C0.194,-0.043 0.162,-0.07 0.138,-0.103C0.115,-0.137 0.097,-0.175 0.086,-0.217C0.075,-0.26 0.07,-0.304 0.07,-0.35L0.07,-0.71L0.182,-0.71L0.182,-0.35C0.182,-0.317 0.186,-0.286 0.192,-0.256C0.199,-0.225 0.209,-0.198 0.224,-0.174C0.239,-0.15 0.258,-0.131 0.283,-0.117C0.308,-0.103 0.339,-0.096 0.376,-0.096C0.413,-0.096 0.444,-0.103 0.469,-0.117C0.494,-0.132 0.514,-0.151 0.528,-0.175C0.543,-0.2 0.554,-0.227 0.56,-0.257C0.567,-0.287 0.57,-0.318 0.57,-0.35L0.57,-0.71L0.683,-0.71L0.683,-0.35C0.683,-0.301 0.677,-0.256 0.665,-0.213C0.654,-0.17 0.636,-0.132 0.612,-0.1C0.587,-0.067 0.556,-0.042 0.517,-0.023C0.478,-0.004 0.431,0.005 0.376,0.005Z" style="fill:rgb(252,252,252);fill-rule:nonzero;"/>
                    </g>
                    <g transform="matrix(216.666667,0,0,216.666667,921.396313,397.583333)">
                        <path d="M0.601,-0.611L0.365,-0.611L0.365,-0L0.252,-0L0.252,-0.611L0.015,-0.611L0.015,-0.71L0.601,-0.71L0.601,-0.611Z" style="fill:rgb(252,252,252);fill-rule:nonzero;"/>
                    </g>
                    <g transform="matrix(216.666667,0,0,216.666667,1076.56359,397.583333)">
                        <path d="M0.663,-0.71L0.663,-0L0.55,-0L0.55,-0.313L0.192,-0.313L0.192,-0L0.08,-0L0.08,-0.71L0.192,-0.71L0.192,-0.413L0.55,-0.413L0.55,-0.71L0.663,-0.71Z" style="fill:rgb(252,252,252);fill-rule:nonzero;"/>
                    </g>
                    <g transform="matrix(216.666667,0,0,216.666667,1259.200806,397.583333)">
                        <rect x="0.08" y="-0.71" width="0.113" height="0.71" style="fill:rgb(252,252,252);fill-rule:nonzero;"/>
                    </g>
                    <g transform="matrix(216.666667,0,0,216.666667,1339.864285,397.583333)">
                        <path d="M0.567,-0.099L0.567,-0L0.08,-0L0.08,-0.71L0.558,-0.71L0.558,-0.611L0.192,-0.611L0.192,-0.409L0.509,-0.409L0.509,-0.316L0.192,-0.316L0.192,-0.099L0.567,-0.099Z" style="fill:rgb(252,252,252);fill-rule:nonzero;"/>
                    </g>
                    <g transform="matrix(216.666667,0,0,216.666667,1492.240463,397.583333)">
                        <path d="M0.192,-0.502L0.192,-0L0.08,-0L0.08,-0.71L0.172,-0.71L0.574,-0.197L0.574,-0.709L0.687,-0.709L0.687,-0L0.589,-0L0.192,-0.502Z" style="fill:rgb(252,252,252);fill-rule:nonzero;"/>
                    </g>
                    <g transform="matrix(216.666667,0,0,216.666667,1658.326153,397.583333)">
                    </g>
                </g>
            </g>
            <g transform="matrix(1.800825,0,0,1.831811,-1034.306554,-3911.878726)">
                <g transform="matrix(85.998311,0,0,85.998311,1228.04317,2836)">
                </g>
                <text x="1119px" y="2836px" style="font-family:'Arial-BoldMT', 'Arial', sans-serif;font-weight:700;font-size:85.998px;fill:rgb(59,148,148);">&lt;<tspan x="1177.822px " y="2836px ">&gt;</tspan></text>
            </g>
            <g transform="matrix(-0.25,0,-0,-0.720258,1400.5,2840.198421)">
                <rect x="1010" y="2228" width="52" height="18" style="fill:rgb(59,148,148);"/>
            </g>
            <g transform="matrix(0.25,0,0,0.720258,755.5,-384.229258)">
                <rect x="1010" y="2228" width="52" height="18" style="fill:rgb(59,148,148);"/>
            </g>
        </g>
    </g>
</svg>
