<svg xmlns="http://www.w3.org/2000/svg" width="620" height="555" viewBox="0 0 620 555">
  <!-- Terminal background -->
  <rect width="620" height="555" rx="8" fill="#1e1e1e"/>

  <!-- Title bar -->
  <rect width="620" height="32" rx="8" fill="#323233"/>
  <rect y="24" width="620" height="8" fill="#323233"/>
  <line x1="0" y1="32" x2="620" y2="32" stroke="#404040" stroke-width="0.5"/>

  <!-- Traffic lights -->
  <circle cx="18" cy="16" r="6.5" fill="#ff5f57"/>
  <circle cx="40" cy="16" r="6.5" fill="#febc2e"/>
  <circle cx="62" cy="16" r="6.5" fill="#28c840"/>

  <!-- Title -->
  <text x="310" y="22" text-anchor="middle" fill="#808080" font-family="'SF Mono',Menlo,Consolas,monospace" font-size="13">claude code</text>

  <!-- $ claude -->
  <text x="20" y="54" fill="#4ec9b0" font-family="'SF Mono',Menlo,Consolas,monospace" font-size="14">$</text>
  <text x="36" y="54" fill="#d4d4d4" font-family="'SF Mono',Menlo,Consolas,monospace" font-size="14">claude</text>

  <!-- Claude Code banner with dashed border -->
  <rect x="20" y="68" width="580" height="72" rx="8" fill="none" stroke="#d4845a" stroke-width="1" stroke-dasharray="6,4"/>
  <rect x="104" y="62" width="188" height="13" fill="#1e1e1e"/>
  <text x="112" y="72" fill="#d4845a" font-family="'SF Mono',Menlo,Consolas,monospace" font-size="14">Claude Code v2.1.52</text>

  <!-- Pixel-art logo inside banner -->
  <g fill="#d4845a" transform="translate(36, 78)">
    <rect x="15" y="0" width="60" height="9"/>
    <rect x="15" y="9" width="10" height="9"/>
    <rect x="30" y="9" width="30" height="9"/>
    <rect x="65" y="9" width="10" height="9"/>
    <rect x="5" y="18" width="80" height="9"/>
    <rect x="15" y="27" width="60" height="9"/>
    <rect x="20" y="36" width="5" height="9"/>
    <rect x="30" y="36" width="5" height="9"/>
    <rect x="55" y="36" width="5" height="9"/>
    <rect x="65" y="36" width="5" height="9"/>
  </g>

  <!-- Info text inside banner -->
  <text x="140" y="100" fill="#808080" font-family="'SF Mono',Menlo,Consolas,monospace" font-size="14">Opus 4.6 · Claude Max</text>
  <text x="140" y="120" fill="#808080" font-family="'SF Mono',Menlo,Consolas,monospace" font-size="14">~/my-project</text>

  <!-- $ cat CLAUDE.md (Tyler: "literally just cat the CLAUDE.md") -->
  <text x="20" y="166" fill="#4ec9b0" font-family="'SF Mono',Menlo,Consolas,monospace" font-size="14">$</text>
  <text x="36" y="166" fill="#d4d4d4" font-family="'SF Mono',Menlo,Consolas,monospace" font-size="14">cat CLAUDE.md</text>
  <text x="36" y="184" fill="#808080" font-family="'SF Mono',Menlo,Consolas,monospace" font-size="13">Python packages: use uv add, never pip install.</text>

  <!-- Separator -->
  <line x1="20" y1="195" x2="600" y2="195" stroke="#444444" stroke-width="1"/>

  <!-- 1. User prompt: install requests -->
  <rect x="16" y="204" width="350" height="18" rx="3" fill="#333333"/>
  <text x="20" y="217" fill="#d4d4d4" font-family="'SF Mono',Menlo,Consolas,monospace" font-size="14">❯</text>
  <text x="36" y="217" fill="#d4d4d4" font-family="'SF Mono',Menlo,Consolas,monospace" font-size="14">Install requests for the HTTP client</text>

  <!-- 2. Claude runs pip (wrong) -->
  <text x="20" y="249" fill="#4ec9b0" font-family="'SF Mono',Menlo,Consolas,monospace" font-size="14">●</text>
  <text x="36" y="249" fill="#d4d4d4" font-family="'SF Mono',Menlo,Consolas,monospace" font-size="14" font-weight="bold">Bash</text>
  <text x="73" y="249" fill="#ce9178" font-family="'SF Mono',Menlo,Consolas,monospace" font-size="14">(pip install requests)</text>

  <text x="36" y="269" fill="#5a5a5a" font-family="'SF Mono',Menlo,Consolas,monospace" font-size="14">└ Successfully installed requests-2.31.0</text>

  <!-- ANNOTATION: red callout on first pip install -->
  <rect x="380" y="235" width="220" height="20" rx="10" fill="#3a1515" stroke="#ff5f57" stroke-width="1"/>
  <text x="393" y="249" fill="#ff9090" font-family="system-ui,-apple-system,sans-serif" font-size="11" font-weight="600">← ignores CLAUDE.md rule</text>

  <!-- 3. User corrects -->
  <rect x="16" y="288" width="200" height="18" rx="3" fill="#333333"/>
  <text x="20" y="301" fill="#d4d4d4" font-family="'SF Mono',Menlo,Consolas,monospace" font-size="14">❯</text>
  <text x="36" y="301" fill="#d4d4d4" font-family="'SF Mono',Menlo,Consolas,monospace" font-size="14">uv not pip please....</text>

  <!-- 4. Claude AI-ism apology + fix -->
  <text x="20" y="333" fill="#ffffff" font-family="'SF Mono',Menlo,Consolas,monospace" font-size="14">●</text>
  <text x="36" y="333" fill="#cccccc" font-family="'SF Mono',Menlo,Consolas,monospace" font-size="14">You're absolutely right, I sincerely apologize.</text>

  <text x="20" y="365" fill="#4ec9b0" font-family="'SF Mono',Menlo,Consolas,monospace" font-size="14">●</text>
  <text x="36" y="365" fill="#d4d4d4" font-family="'SF Mono',Menlo,Consolas,monospace" font-size="14" font-weight="bold">Bash</text>
  <text x="73" y="365" fill="#4ec9b0" font-family="'SF Mono',Menlo,Consolas,monospace" font-size="14">(uv add requests)</text>

  <text x="36" y="385" fill="#5a5a5a" font-family="'SF Mono',Menlo,Consolas,monospace" font-size="14">└ Resolved 1 package in 0.5s</text>

  <!-- 5. Time divider -->
  <line x1="40" y1="417" x2="180" y2="417" stroke="#555555" stroke-width="1"/>
  <text x="310" y="422" text-anchor="middle" fill="#808080" font-family="'SF Mono',Menlo,Consolas,monospace" font-size="14" font-style="italic">20 minutes later</text>
  <line x1="440" y1="417" x2="580" y2="417" stroke="#555555" stroke-width="1"/>

  <!-- 6. User asks for pytest -->
  <rect x="16" y="436" width="270" height="18" rx="3" fill="#333333"/>
  <text x="20" y="449" fill="#d4d4d4" font-family="'SF Mono',Menlo,Consolas,monospace" font-size="14">❯</text>
  <text x="36" y="449" fill="#d4d4d4" font-family="'SF Mono',Menlo,Consolas,monospace" font-size="14">Now add pytest for testing</text>

  <!-- 7. Claude uses pip AGAIN -->
  <text x="20" y="481" fill="#4ec9b0" font-family="'SF Mono',Menlo,Consolas,monospace" font-size="14">●</text>
  <text x="36" y="481" fill="#d4d4d4" font-family="'SF Mono',Menlo,Consolas,monospace" font-size="14" font-weight="bold">Bash</text>
  <text x="73" y="481" fill="#ce9178" font-family="'SF Mono',Menlo,Consolas,monospace" font-size="14">(pip install pytest)</text>

  <text x="36" y="501" fill="#5a5a5a" font-family="'SF Mono',Menlo,Consolas,monospace" font-size="14">└ Successfully installed pytest-8.0.0</text>

  <!-- ANNOTATION: red callout on second pip install -->
  <rect x="345" y="467" width="255" height="20" rx="10" fill="#3a1515" stroke="#ff5f57" stroke-width="1"/>
  <text x="358" y="481" fill="#ff9090" font-family="system-ui,-apple-system,sans-serif" font-size="11" font-weight="600">← ...and again, 20 min later</text>

  <!-- 8. User explodes -->
  <rect x="16" y="520" width="350" height="18" rx="3" fill="#333333"/>
  <text x="20" y="533" fill="#d4d4d4" font-family="'SF Mono',Menlo,Consolas,monospace" font-size="14">❯</text>
  <text x="36" y="533" fill="#d4d4d4" font-family="'SF Mono',Menlo,Consolas,monospace" font-size="14">UV!!! FOR THE LOVE OF GOD!!</text>
</svg>
